<svg xmlns="http://www.w3.org/2000/svg" viewBox="0 0 48 48" role="img" aria-labelledby="title desc">
  <title id="title">Tailscale</title>
  <desc id="desc">Official Tailscale mark in a rounded square.</desc>
  <path
    fill="#1f1e1e"
    d="M28.8 0C35.5206 0 38.881 0 41.4479 1.30792C43.7058 2.4584 45.5416 4.29417 46.6921 6.55211C48 9.11905 48 12.4794 48 19.2V28.8C48 35.5206 48 38.881 46.6921 41.4479C45.5416 43.7058 43.7058 45.5416 41.4479 46.6921C38.881 48 35.5206 48 28.8 48H19.2C12.4794 48 9.11905 48 6.55211 46.6921C4.29417 45.5416 2.4584 43.7058 1.30792 41.4479C0 38.881 0 35.5206 0 28.8V19.2C0 12.4794 0 9.11905 1.30792 6.55211C2.4584 4.29417 4.29417 2.4584 6.55211 1.30792C9.11905 0 12.4794 0 19.2 0H28.8Z"
  />
  <g fill="#fff">
    <ellipse cx="15" cy="24" rx="3" ry="3" />
    <ellipse cx="24" cy="24" rx="3" ry="3" />
    <ellipse cx="33" cy="24" rx="3" ry="3" />
    <ellipse cx="24" cy="33" rx="3" ry="3" />
  </g>
  <g fill="#fff" opacity="0.4">
    <ellipse cx="15" cy="15" rx="3" ry="3" />
    <ellipse cx="24" cy="15" rx="3" ry="3" />
    <ellipse cx="33" cy="15" rx="3" ry="3" />
    <ellipse cx="15" cy="33" rx="3" ry="3" />
    <ellipse cx="33" cy="33" rx="3" ry="3" />
  </g>
</svg>
